<svg width="175" height="267" viewBox="0 0 175 267" fill="none" xmlns="http://www.w3.org/2000/svg">
<rect x="46.6888" y="187" width="27" height="79" fill="#9F7535"/>
<path opacity="0.1" d="M57.6888 187H73.6888V266H57.6888V187Z" fill="black"/>
<path fill-rule="evenodd" clip-rule="evenodd" d="M120.378 194.25L60.1888 0L0 194.25H9.5945L3.4641 215H116.913L110.783 194.25H120.378Z" fill="#81B214"/>
<path opacity="0.1" fill-rule="evenodd" clip-rule="evenodd" d="M59.6888 215H116.913L110.783 194.25H120.378L60.1888 0L59.6888 1.61362V215Z" fill="black"/>
<rect x="110.293" y="213.25" width="18.3491" height="53.6881" fill="#9F7535"/>
<path opacity="0.1" d="M117.769 213.25H128.642V266.938H117.769V213.25Z" fill="black"/>
<path fill-rule="evenodd" clip-rule="evenodd" d="M117.429 95L152.447 148.518H140.138L166.527 188.784H151.524L174.178 222.764H60L82.6544 188.784H67.6512L94.0404 148.518H82.4102L117.429 95Z" fill="#81B214"/>
<path opacity="0.1" fill-rule="evenodd" clip-rule="evenodd" d="M60.003 222.76L60 222.764H60.003V222.76ZM117.089 222.764H174.178L151.524 188.784H166.527L140.138 148.518H152.447L117.429 95L117.089 95.5192V222.764Z" fill="black"/>
</svg>
